<svg width="500" height="500" viewBox="0 0 500 500" fill="none" xmlns="http://www.w3.org/2000/svg">
<circle cx="250" cy="98" r="66" fill="#419D78"/>
<path fill-rule="evenodd" clip-rule="evenodd" d="M186.38 231.051L249.5 267.536L312.62 231.051L315.974 123.88L322.683 117.182C339.456 129.462 373 165.409 373 210.957C373 267.892 342.81 298.034 329.392 311.43C328.73 312.092 328.091 312.721 327.477 313.326C315.651 324.982 312.62 327.969 312.62 388.459V467.929H186.38V388.459C186.38 327.969 183.349 324.982 171.523 313.326C170.909 312.721 170.27 312.092 169.608 311.43C156.19 298.034 126 267.892 126 210.957C126 165.409 159.544 129.462 176.317 117.182L183.026 123.88L186.38 231.051Z" fill="#419D78"/>
<path d="M241 265C231.833 276.768 207 304.843 181 323" stroke="white" stroke-width="7"/>
<path d="M256 265C265.167 276.768 290 304.843 316 323" stroke="white" stroke-width="7"/>
<path fill-rule="evenodd" clip-rule="evenodd" d="M248.75 284.05L242 280C232.667 291.667 210.3 316.9 195.5 324.5C205.046 330.096 228.896 340.731 248.75 339.069C268.604 340.731 292.454 330.096 302 324.5C287.2 316.9 264.833 291.667 255.5 280L248.75 284.05Z" fill="#F2DBB5"/>
</svg>
